<?xml version="1.0" encoding="UTF-8" standalone="no"?>
<!-- Generator: Adobe Illustrator 15.0.2, SVG Export Plug-In . SVG Version: 6.00 Build 0)  -->

<svg
   xmlns:dc="http://purl.org/dc/elements/1.1/"
   xmlns:cc="http://creativecommons.org/ns#"
   xmlns:rdf="http://www.w3.org/1999/02/22-rdf-syntax-ns#"
   xmlns:svg="http://www.w3.org/2000/svg"
   xmlns="http://www.w3.org/2000/svg"
   xmlns:sodipodi="http://sodipodi.sourceforge.net/DTD/sodipodi-0.dtd"
   xmlns:inkscape="http://www.inkscape.org/namespaces/inkscape"
   version="1.1"
   id="Layer_1"
   x="0px"
   y="0px"
   width="160"
   height="160"
   viewBox="0 0 150.00001 150.00001"
   enable-background="new 0 0 363 227"
   xml:space="preserve"
   inkscape:version="0.92.0 r15299"
   sodipodi:docname="logo.svg"
   inkscape:export-filename="D:\favicon.png"
   inkscape:export-xdpi="614.40002"
   inkscape:export-ydpi="614.40002"><metadata
     id="metadata3108"><rdf:RDF><cc:Work
         rdf:about=""><dc:format>image/svg+xml</dc:format><dc:type
           rdf:resource="http://purl.org/dc/dcmitype/StillImage" /><dc:title></dc:title></cc:Work></rdf:RDF></metadata><defs
     id="defs3106" /><sodipodi:namedview
     pagecolor="#ffffff"
     bordercolor="#666666"
     borderopacity="1"
     objecttolerance="10"
     gridtolerance="10"
     guidetolerance="10"
     inkscape:pageopacity="0"
     inkscape:pageshadow="2"
     inkscape:window-width="1920"
     inkscape:window-height="1178"
     id="namedview3104"
     showgrid="false"
     fit-margin-top="0"
     fit-margin-left="0"
     fit-margin-right="0"
     fit-margin-bottom="0"
     inkscape:zoom="6.2375"
     inkscape:cx="80"
     inkscape:cy="80"
     inkscape:window-x="-8"
     inkscape:window-y="-8"
     inkscape:window-maximized="1"
     inkscape:current-layer="g3943"
     showguides="true"
     inkscape:guide-bbox="true"
     units="mm" /><g
     id="g3943"
     transform="translate(-58.65625,-300.15625)"><circle
       style="opacity:1;fill:#ffffff;fill-opacity:1;stroke:none;stroke-width:15.57349014;stroke-linecap:round;stroke-linejoin:round;stroke-miterlimit:4;stroke-dasharray:none;stroke-dashoffset:0;stroke-opacity:1"
       id="path11"
       cx="133.65625"
       cy="375.15625"
       r="75" /><g
       id="g4594"
       transform="translate(-8.05e-5)"><path
         id="path4565"
         d="m 183.59735,333.86871 -26.59974,15.44861 -47.03796,27.32117 47.03796,27.32116 24.9408,14.48548 c 3.19141,-3.56165 6.08414,-7.39882 8.4375,-11.60156 h 0.002 c 5.25279,-9.38068 8.2782,-20.17969 8.2782,-31.69373 0,-10.50755 -2.55728,-20.39132 -6.98548,-29.1742 h -0.002 c -2.20276,-4.36894 -4.98454,-8.36909 -8.07129,-12.10693 z"
         style="fill:#ffcb05;fill-opacity:1;stroke:none;stroke-width:0.41788048"
         inkscape:connector-curvature="0" /><path
         id="path3018-7-6"
         d="m 133.64983,310.15655 c -35.897746,0 -64.993285,29.09554 -64.993285,64.99329 0,13.60284 4.177791,26.23136 11.32141,36.6687 l 4.16565,-32.13684 h 25.805055 l 7.58606,58.45093 c 5.15331,1.31458 10.55238,2.02331 16.11511,2.02331 19.22516,0 36.39463,-8.43707 48.28858,-21.71081 l -24.9408,-14.48548 -47.03796,-27.32116 47.03796,-27.32117 26.59974,-15.44861 c -11.90762,-14.41929 -29.78416,-23.71216 -49.94752,-23.71216 z m -36.604612,45.49622 c 5.502322,0 10.459872,3.33553 12.524422,8.43567 0.25062,0.61785 0.37902,1.26795 0.37902,1.93359 v 7.65198 H 84.156421 v -7.65198 c 0,-0.66564 0.114413,-1.31574 0.366216,-1.93359 2.064534,-5.09897 7.021416,-8.43567 12.522581,-8.43567 z"
         style="fill:#006cb7;fill-opacity:1;stroke:none;stroke-width:0.41788048"
         inkscape:connector-curvature="0" /><circle
         r="15.747624"
         cy="376.15692"
         cx="171.7946"
         id="path4587"
         style="opacity:1;fill:#d81920;fill-opacity:1;stroke:none;stroke-width:4.29310942;stroke-linecap:round;stroke-linejoin:round;stroke-miterlimit:4;stroke-dasharray:none;stroke-dashoffset:0;stroke-opacity:1" /></g></g></svg>