<?xml version="1.0" encoding="UTF-8" standalone="no"?>
<!-- Generator: Adobe Illustrator 15.0.2, SVG Export Plug-In . SVG Version: 6.00 Build 0)  -->

<svg
   xmlns:dc="http://purl.org/dc/elements/1.1/"
   xmlns:cc="http://creativecommons.org/ns#"
   xmlns:rdf="http://www.w3.org/1999/02/22-rdf-syntax-ns#"
   xmlns:svg="http://www.w3.org/2000/svg"
   xmlns="http://www.w3.org/2000/svg"
   xmlns:sodipodi="http://sodipodi.sourceforge.net/DTD/sodipodi-0.dtd"
   xmlns:inkscape="http://www.inkscape.org/namespaces/inkscape"
   version="1.1"
   id="Layer_1"
   x="0px"
   y="0px"
   width="60.000004"
   height="60.000004"
   viewBox="0 0 60.000005 60.000006"
   enable-background="new 0 0 363 227"
   xml:space="preserve"
   inkscape:version="0.92.0 r15299"
   sodipodi:docname="produktiv.svg"
   inkscape:export-filename="D:\klarschiff.png"
   inkscape:export-xdpi="76.800003"
   inkscape:export-ydpi="76.800003"><metadata
     id="metadata3108"><rdf:RDF><cc:Work
         rdf:about=""><dc:format>image/svg+xml</dc:format><dc:type
           rdf:resource="http://purl.org/dc/dcmitype/StillImage" /><dc:title /></cc:Work></rdf:RDF></metadata><defs
     id="defs3106" /><sodipodi:namedview
     pagecolor="#ffffff"
     bordercolor="#666666"
     borderopacity="1"
     objecttolerance="10"
     gridtolerance="10"
     guidetolerance="10"
     inkscape:pageopacity="0"
     inkscape:pageshadow="2"
     inkscape:window-width="1920"
     inkscape:window-height="1178"
     id="namedview3104"
     showgrid="false"
     fit-margin-top="0"
     fit-margin-left="0"
     fit-margin-right="0"
     fit-margin-bottom="0"
     inkscape:zoom="15.516666"
     inkscape:cx="15.918369"
     inkscape:cy="30.000002"
     inkscape:window-x="-8"
     inkscape:window-y="-8"
     inkscape:window-maximized="1"
     inkscape:current-layer="Layer_1"
     showguides="true"
     inkscape:guide-bbox="true"
     units="px" /><g
     id="g3872"
     transform="matrix(0.46984148,0,0,0.47367927,2.2503405e-6,0)"><path
       style="fill:#006cb7;fill-opacity:1;stroke:none"
       d="m 94.584577,0.0054484 c -2.198578,0.0605 -4.318448,0.63415 -6.25,1.75 -6.056895,3.49899 -8.414964,11.3992696 -6.46875,19.4999996 -1.233841,4.01519 -3.537638,8.05859 -8.249998,14.09375 l -13.8125,13.8125 10.125,10.125 14.031248,-14.03125 c 4.471916,-3.47964 7.885984,-5.63702 10.96875,-7 4.919654,2.49526 10.263003,2.8011 14.625003,0.28125 5.16235,-2.98226 7.62479,-9.13321 7.03125,-15.90625 -4.63923,2.89375 -11.20066,6.48198 -14.65625,6.21875 -2.929579,-0.28193 -5.500346,-2.48041 -7.406253,-5.875 -2.052515,-3.65572 -3.214,-6.50361 -1.65625,-9.75 0.308463,-0.64283 0.861005,-1.37221 1.53125,-2.0625 2.583333,-2.6602297 7.355063,-5.4836996 11.187503,-7.5312496 -3.4734,-2.42432 -7.335709,-3.72581 -11.000003,-3.625 z M 50.209579,58.786698 33.053329,75.942948 c -4.75869,3.72008 -8.26805,5.96613 -11.5,7.34375 -4.87838,-2.42508 -10.1877,-2.70994 -14.5000001,-0.21875 -5.15085,2.97556 -7.54729001,9.15108 -6.96875001,15.906251 3.68842001,-2.29721 8.49959001,-5.029121 12.09375011,-5.937501 0.93257,-0.23566 1.82063,-0.39789 2.53125,-0.34375 3.58866,0.27332 5.48717,2.73729 7.625,6.343751 1.98512,3.348811 2.62702,6.664211 1.40625,9.343751 -1.49996,3.126 -7.92578,7.02057 -12.75,9.59375 5.56542,3.90085 12.11886,4.85725 17.28125,1.875 6.02706,-3.48179 8.38989,-11.32426 6.5,-19.375 1.19338,-4.072271 3.47549,-8.124662 8.1875,-14.187502 l 17.375,-17.375 -10.125,-10.125 z"
       id="path3004"
       inkscape:connector-curvature="0" /><g
       id="g3852"
       transform="matrix(1.0050986,-1.0056909,1.0050986,1.0056909,-397.8811,216.33268)"
       style="fill:#d81920;fill-opacity:1"><g
         id="g3854"><rect
           style="fill:#d81920;fill-opacity:1;stroke:none"
           id="rect3856"
           width="67.717529"
           height="6.6540337"
           x="-166.44287"
           y="-309.36447"
           ry="3.3270168"
           transform="matrix(0,-1,-1,0,0,0)" /><rect
           style="fill:#d81920;fill-opacity:1;stroke:none"
           id="rect3858"
           width="44.326199"
           height="6.6540337"
           x="283.87436"
           y="168.94849"
           ry="3.3270168" /><rect
           style="fill:#d81920;fill-opacity:1;stroke:none"
           id="rect3860"
           width="18.878233"
           height="4.0702434"
           x="178.06299"
           y="-290.16876"
           ry="0"
           transform="matrix(0,1,-1,0,0,0)" /><rect
           transform="matrix(0,1,-1,0,0,0)"
           ry="0"
           y="-325.97638"
           x="178.06299"
           height="4.0702434"
           width="18.878233"
           id="rect3862"
           style="fill:#d81920;fill-opacity:1;stroke:none" /><rect
           transform="matrix(0,1,-1,0,0,0)"
           ry="0"
           y="-297.33029"
           x="178.06299"
           height="4.0702434"
           width="18.878233"
           id="rect3864"
           style="fill:#d81920;fill-opacity:1;stroke:none" /><rect
           style="fill:#d81920;fill-opacity:1;stroke:none"
           id="rect3866"
           width="18.878233"
           height="4.0702434"
           x="178.06299"
           y="-304.49182"
           ry="0"
           transform="matrix(0,1,-1,0,0,0)" /><rect
           transform="matrix(0,1,-1,0,0,0)"
           ry="0"
           y="-311.65332"
           x="178.06299"
           height="4.0702434"
           width="18.878233"
           id="rect3868"
           style="fill:#d81920;fill-opacity:1;stroke:none" /><rect
           style="fill:#d81920;fill-opacity:1;stroke:none"
           id="rect3870"
           width="18.878233"
           height="4.0702434"
           x="178.06299"
           y="-318.81488"
           ry="0"
           transform="matrix(0,1,-1,0,0,0)" /></g></g></g></svg>