<?xml version="1.0" encoding="UTF-8" standalone="no"?>
<!-- Generator: Adobe Illustrator 15.0.2, SVG Export Plug-In . SVG Version: 6.00 Build 0)  -->

<svg
   xmlns:dc="http://purl.org/dc/elements/1.1/"
   xmlns:cc="http://creativecommons.org/ns#"
   xmlns:rdf="http://www.w3.org/1999/02/22-rdf-syntax-ns#"
   xmlns:svg="http://www.w3.org/2000/svg"
   xmlns="http://www.w3.org/2000/svg"
   xmlns:sodipodi="http://sodipodi.sourceforge.net/DTD/sodipodi-0.dtd"
   xmlns:inkscape="http://www.inkscape.org/namespaces/inkscape"
   version="1.1"
   id="Layer_1"
   x="0px"
   y="0px"
   width="833"
   height="758"
   viewBox="0 0 833.00001 758.00007"
   enable-background="new 0 0 363 227"
   xml:space="preserve"
   inkscape:version="0.48.2 r9819"
   sodipodi:docname="farbe_ohne-schrift.svg"
   inkscape:export-filename="D:\logo.png"
   inkscape:export-xdpi="7.6710682"
   inkscape:export-ydpi="7.6710682"><metadata
   id="metadata3108"><rdf:RDF><cc:Work
       rdf:about=""><dc:format>image/svg+xml</dc:format><dc:type
         rdf:resource="http://purl.org/dc/dcmitype/StillImage" /><dc:title></dc:title></cc:Work></rdf:RDF></metadata><defs
   id="defs3106" /><sodipodi:namedview
   pagecolor="#ffffff"
   bordercolor="#666666"
   borderopacity="1"
   objecttolerance="10"
   gridtolerance="10"
   guidetolerance="10"
   inkscape:pageopacity="0"
   inkscape:pageshadow="2"
   inkscape:window-width="1920"
   inkscape:window-height="1058"
   id="namedview3104"
   showgrid="false"
   fit-margin-top="0"
   fit-margin-left="0"
   fit-margin-right="0"
   fit-margin-bottom="0"
   inkscape:zoom="1.1068602"
   inkscape:cx="416.5"
   inkscape:cy="379"
   inkscape:window-x="-8"
   inkscape:window-y="-8"
   inkscape:window-maximized="1"
   inkscape:current-layer="Layer_1"
   showguides="true"
   inkscape:guide-bbox="true"
   units="px" />























<g
   id="g2986"><path
     id="path3"
     d="M 72.984576,173.0708 V 499.80501 H 24.274025 C 10.894063,499.8131 -2.4336836e-6,488.85393 -2.4336836e-6,475.55387 V 54.528596 L 31.366141,12.870759 C 36.703508,5.799529 48.344966,0 57.224326,0 h 64.365184 c 8.88747,0 23.48601,0 32.31664,0 h 64.36518 c 8.88748,0 20.52082,5.799529 25.86632,12.870759 l 31.35801,41.657837 h 366.69385 c 13.33937,0 24.21713,10.861983 24.21713,24.153932 V 173.0708 H 348.48836 l -31.35802,-41.65785 c -5.34549,-7.07121 -16.97882,-12.86265 -25.86632,-12.86265 h -64.36517 c -8.88747,0 -23.42915,0 -32.31664,0 h -64.36518 c -8.88747,0 -20.52082,5.79954 -25.8663,12.86265 L 72.984576,173.0708 z"
     inkscape:connector-curvature="0"
     style="fill:#006cb7" /><path
     id="path5"
     d="m 808.11807,300.07871 h -375.9367 l -32.22076,-42.73333 c -5.47288,-7.26384 -17.40987,-13.22818 -26.46467,-13.22818 h -65.99925 c -9.11313,0 -24.02398,0 -33.18706,0 h -65.94927 c -9.11312,0 -21.0418,5.96434 -26.52299,13.22818 l -32.16246,42.73333 v 433.08937 c 0,13.678 11.17064,24.83199 24.78201,24.83199 h 633.65283 c 13.71964,0 24.89029,-11.17066 24.89029,-24.83199 V 325.01897 c 0.008,-13.76962 -11.16232,-24.94026 -24.88197,-24.94026 z"
     inkscape:connector-curvature="0"
     style="fill:#d81920" /></g></svg>