<?xml version="1.0" encoding="UTF-8" standalone="no"?>
<!-- Generator: Adobe Illustrator 15.0.2, SVG Export Plug-In . SVG Version: 6.00 Build 0)  -->

<svg
   xmlns:dc="http://purl.org/dc/elements/1.1/"
   xmlns:cc="http://creativecommons.org/ns#"
   xmlns:rdf="http://www.w3.org/1999/02/22-rdf-syntax-ns#"
   xmlns:svg="http://www.w3.org/2000/svg"
   xmlns="http://www.w3.org/2000/svg"
   xmlns:sodipodi="http://sodipodi.sourceforge.net/DTD/sodipodi-0.dtd"
   xmlns:inkscape="http://www.inkscape.org/namespaces/inkscape"
   version="1.1"
   id="Layer_1"
   x="0px"
   y="0px"
   width="60"
   height="55"
   viewBox="0 0 60.000001 55.000002"
   enable-background="new 0 0 363 227"
   xml:space="preserve"
   inkscape:version="0.48.5 r10040"
   sodipodi:docname="produktiv.svg"><metadata
   id="metadata3108"><rdf:RDF><cc:Work
       rdf:about=""><dc:format>image/svg+xml</dc:format><dc:type
         rdf:resource="http://purl.org/dc/dcmitype/StillImage" /><dc:title /></cc:Work></rdf:RDF></metadata><defs
   id="defs3106" /><sodipodi:namedview
   pagecolor="#ffffff"
   bordercolor="#666666"
   borderopacity="1"
   objecttolerance="10"
   gridtolerance="10"
   guidetolerance="10"
   inkscape:pageopacity="0"
   inkscape:pageshadow="2"
   inkscape:window-width="1920"
   inkscape:window-height="1178"
   id="namedview3104"
   showgrid="false"
   fit-margin-top="0"
   fit-margin-left="0"
   fit-margin-right="0"
   fit-margin-bottom="0"
   inkscape:zoom="17.472727"
   inkscape:cx="30"
   inkscape:cy="27.5"
   inkscape:window-x="-8"
   inkscape:window-y="-8"
   inkscape:window-maximized="1"
   inkscape:current-layer="Layer_1"
   showguides="true"
   inkscape:guide-bbox="true"
   units="px" />























<g
   id="g2985"><path
     sodipodi:nodetypes="ccccc"
     id="path6"
     d="M -4.073487e-7,48.125542 17.378126,55.000002 l 0,-48.1249252 L -4.073487e-7,0 z"
     inkscape:connector-curvature="0"
     style="fill:#2b58a3;fill-opacity:1" /><polygon
     transform="scale(0.62500002,0.61815116)"
     id="polygon8"
     points="68.195,0 68.195,77.854 96,88.975 96,11.122 "
     style="fill:#de0029;fill-opacity:1" /><polygon
     transform="scale(0.62500002,0.61815116)"
     id="polygon10"
     points="31.317,88.975 64.683,77.854 64.683,0 31.317,11.122 "
     style="fill:#f9f400;fill-opacity:1" /><path
     id="path3-1"
     d="m 30.572511,20.052482 c -2.781201,0.919651 -5.035348,3.919165 -5.035348,6.700367 0,2.157768 1.363032,3.532338 3.270038,3.619751 l 0.50651,1.370789 1.2588,3.415288 1.258805,-4.247775 0.50665,-1.705808 c 1.905946,-1.348231 3.269886,-3.624519 3.269886,-5.782287 1.6e-4,-2.781256 -2.25596,-4.289375 -5.035341,-3.370325 z m -0.08354,6.573585 c -0.834011,0.27578 -1.51062,-0.177093 -1.51062,-1.011104 0,-0.834011 0.676609,-1.734355 1.51062,-2.010135 0.834012,-0.275779 1.510612,0.177103 1.510612,1.011114 0,0.834011 -0.6766,1.734346 -1.510612,2.010125 z"
     inkscape:connector-curvature="0" /></g></svg>